PathFileType	4	(X/Y/Z)	/Users/itak/Documents/Research/Walk-IL/dataset/trc/00149_00007.trc
DataRate	CameraRate	NumFrames	NumMarkers	Units	OrigDataRate	OrigDataStartFrame	OrigNumFrames
100.000000	100.000000	4	54	mm	100.000000	392	523
Frame#	Time	RPSI			LPSI			L3			STRN			T10			C7			CLAV			RBAK			LBAK			LSHO			LUPA			LAEL			LAOL			LWTS			LWPS			LFRA			LIFD			LHPS			LHTS			RSHO			RUPA			RAEL			RAOL			RWTS			RWPS			RFRA			RIFD			RHTS			RHPS			RBHD			LFHD			RFHD			LBHD			LHIP			RHIP			RASI			LASI			LKNE			LTHI			LANK			LTIP			LTOE			LMT1			LMT5			LHEE			RKNE			RANK			RTIP			RTOE			RMT1			RMT5			RHEE			RTHI			*53			
		X1	Y1	Z1	X2	Y2	Z2	X3	Y3	Z3	X4	Y4	Z4	X5	Y5	Z5	X6	Y6	Z6	X7	Y7	Z7	X8	Y8	Z8	X9	Y9	Z9	X10	Y10	Z10	X11	Y11	Z11	X12	Y12	Z12	X13	Y13	Z13	X14	Y14	Z14	X15	Y15	Z15	X16	Y16	Z16	X17	Y17	Z17	X18	Y18	Z18	X19	Y19	Z19	X20	Y20	Z20	X21	Y21	Z21	X22	Y22	Z22	X23	Y23	Z23	X24	Y24	Z24	X25	Y25	Z25	X26	Y26	Z26	X27	Y27	Z27	X28	Y28	Z28	X29	Y29	Z29	X30	Y30	Z30	X31	Y31	Z31	X32	Y32	Z32	X33	Y33	Z33	X34	Y34	Z34	X35	Y35	Z35	X36	Y36	Z36	X37	Y37	Z37	X38	Y38	Z38	X39	Y39	Z39	X40	Y40	Z40	X41	Y41	Z41	X42	Y42	Z42	X43	Y43	Z43	X44	Y44	Z44	X45	Y45	Z45	X46	Y46	Z46	X47	Y47	Z47	X48	Y48	Z48	X49	Y49	Z49	X50	Y50	Z50	X51	Y51	Z51	X52	Y52	Z52	X53	Y53	Z53	X54	Y54	Z54	

393	3.92	276.3268127441406	1107.241821289062	284.4601745605469	410.0824890136719	1111.52978515625	268.8717346191406	342.8027648925781	1140.6767578125	267.0726013183594	368.851318359375	1349.9814453125	475.2431335449219	328.3848266601562	1289.411865234375	231.8253784179688	345.4759826660156	1583.176635742188	245.3036041259766	367.5693969726562	1482.469970703125	430.8079223632812	250.6811218261719	1397.3095703125	213.6674041748047	444.8095703125	1562.395629882812	222.66259765625	526.7954711914062	1551.682250976562	296.6433715820312	592.3173217773438	1420.2275390625	265.3179626464844	618.897216796875	1202.443969726562	272.5427551269531	547.0966186523438	1188.17724609375	222.5574188232422	606.5328369140625	945.0640869140625	382.7955322265625	612.5016479492188	918.665283203125	297.6967468261719	628.8893432617188	1086.192626953125	288.2922668457031	592.7673950195312	752.0672607421875	402.2604675292969	620.8004760742188	844.2770385742188	326.3846130371094	621.2463989257812	856.4624633789062	394.7590026855469	176.3673706054688	1568.55322265625	330.2196655273438	109.9834823608398	1494.70166015625	329.2131652832031	85.81065368652344	1200.923217773438	354.0675048828125	180.2112579345703	1195.952270507812	329.4117736816406	126.3114547729492	966.988037109375	509.9271545410156	77.70194244384766	947.9596557617188	444.4075012207031	74.48052215576172	1130.6865234375	386.4812927246094	144.0668640136719	773.044677734375	540.8366088867188	124.110710144043	860.4508666992188	545.3963623046875	80.37064361572266	850.3956909179688	487.2674560546875	277.0009460449219	1763.052612304688	303.4399108886719	433.3592529296875	1822.307373046875	448.5497131347656	305.8845825195312	1824.785888671875	469.8417053222656	409.8457641601562	1766.144165039062	275.0383911132812	532.8546752929688	1031.387451171875	355.0592956542969	175.8451385498047	1011.364135742188	422.9064025878906	235.0770568847656	1089.818237304688	499.4277038574219	497.6574096679688	1097.851684570312	461.89892578125	541.4683837890625	551.18359375	513.0956420898438	558.9454956054688	686.0006103515625	446.1814270019531	565.29052734375	33.44402694702148	533.4141235351562	580.0637817382812	291.8576049804688	481.8329467773438	509.4314270019531	54.07785034179688	759.5907592773438	476.0518798828125	51.3657112121582	683.153564453125	589.8047485351562	39.07476043701172	657.0227661132812	502.1525573730469	33.53943634033203	465.8229675292969	219.8953857421875	514.6356811523438	400.7660827636719	167.6303558349609	82.49604797363281	91.68943023681641	193.2629547119141	395.951171875	324.9937744140625	291.4612731933594	36.97659683227539	284.9111022949219	308.5645141601562	42.1060905456543	213.3780670166016	188.8766784667969	41.0920295715332	218.9304656982422	198.8086547851562	110.3923263549805	28.29348564147949	193.9919128417969	796.1035766601562	437.7603454589844	nan	nan	nan	
394	3.93	280.9678344726562	1107.862548828125	290.0537109375	414.8191528320312	1112.673583984375	275.4283752441406	347.5703125	1141.689575195312	273.1084289550781	372.3164978027344	1351.115600585938	481.5609130859375	333.3643188476562	1290.427368164062	237.9417419433594	350.3009338378906	1584.160522460938	251.2903747558594	371.3203430175781	1483.578979492188	437.0383911132812	255.6224517822266	1398.345336914062	219.2384185791016	449.7622680664062	1563.38720703125	229.2632598876953	531.2567749023438	1552.8046875	303.7468872070312	597.2422485351562	1421.44140625	273.0296020507812	624.1021118164062	1203.670532226562	281.0558776855469	552.7595825195312	1189.17578125	230.48828125	611.0881958007812	946.7619018554688	392.3095397949219	617.863037109375	919.9833984375	307.3606262207031	634.1112060546875	1087.494262695312	297.3527221679688	597.3734130859375	753.835205078125	412.5263061523438	625.9553833007812	845.7308349609375	336.4996337890625	625.7783203125	858.230712890625	404.8014221191406	180.7595825195312	1569.698852539062	335.3445739746094	114.2671127319336	1495.987548828125	333.7943420410156	89.63967132568359	1202.217041015625	356.2923889160156	184.1996459960938	1197.3681640625	332.6220397949219	128.0788421630859	966.9486083984375	510.8688354492188	80.21704864501953	948.4869384765625	444.4658508300781	78.00251007080078	1131.697631835938	388.064697265625	145.4717559814453	772.6377563476562	540.1107177734375	125.4209518432617	860.0235595703125	545.2386474609375	82.61862945556641	850.4349975585938	486.5693054199219	281.4561157226562	1764.091186523438	308.9867248535156	437.1981506347656	1823.311767578125	454.7417907714844	309.6587829589844	1825.879150390625	475.4794311523438	414.40576171875	1767.11279296875	281.1284790039062	537.1842651367188	1032.766357421875	362.4150085449219	180.1402435302734	1012.310180664062	428.300048828125	238.537841796875	1090.545776367188	504.7999572753906	501.3131713867188	1099.060302734375	468.9750061035156	544.1924438476562	551.13671875	516.3665161132812	561.7590942382812	686.519775390625	450.8885192871094	565.4246826171875	33.36915969848633	533.59033203125	581.53515625	291.7901611328125	483.5477294921875	509.6128540039062	52.59499740600586	760.24560546875	476.2520446777344	50.94119644165039	683.541015625	590.219482421875	38.67353439331055	657.3475341796875	502.4715881347656	33.73228454589844	465.9747009277344	222.9392700195312	514.7933349609375	412.2052001953125	168.2928314208984	88.09191131591797	94.98416137695312	195.7277374267578	397.4785461425781	334.5212097167969	291.568115234375	36.83387756347656	285.3269653320312	309.0541381835938	43.02901840209961	214.3216705322266	189.4426116943359	41.52177810668945	220.0789642333984	199.843994140625	118.1817169189453	32.78569793701172	197.6134796142578	796.7855224609375	445.3602600097656	nan	nan	nan	
395	3.94	285.5552062988281	1108.35205078125	295.5684204101562	419.5001525878906	1113.702880859375	281.9083251953125	352.2759094238281	1142.614135742188	279.08740234375	375.6731872558594	1352.147583007812	487.7880554199219	338.3260803222656	1291.359130859375	243.9496917724609	355.0718383789062	1585.059692382812	257.2267761230469	374.9830017089844	1484.588012695312	443.2057189941406	260.5522155761719	1399.296630859375	224.6929931640625	454.6591186523438	1564.299926757812	235.8301696777344	535.6351318359375	1553.836059570312	310.8292846679688	602.1104125976562	1422.576416015625	280.7181091308594	629.2861328125	1204.827514648438	289.5399780273438	558.4376831054688	1190.0830078125	238.3576049804688	615.5982055664062	948.435791015625	401.8615417480469	623.239013671875	921.2467651367188	317.0874328613281	639.3221435546875	1088.73095703125	306.421142578125	601.984619140625	755.592529296875	422.9183654785156	631.1211547851562	847.1433715820312	346.7134094238281	630.280517578125	859.9904174804688	414.9352111816406	185.0768737792969	1570.728881835938	340.3672790527344	118.5001907348633	1497.146362304688	338.2489929199219	93.4072265625	1203.399169921875	358.4771118164062	188.0195922851562	1198.656982421875	335.6619873046875	129.9406433105469	966.9666137695312	511.8622741699219	82.72460174560547	949.0020751953125	444.6351928710938	81.47534942626953	1132.62353515625	389.6357727050781	147.0828247070312	772.3438110351562	539.62451171875	126.9141006469727	859.6937866210938	545.230712890625	85.03132629394531	850.4747924804688	486.1083984375	285.8519592285156	1765.006713867188	314.4861145019531	440.9644775390625	1824.24755859375	460.8689575195312	313.3729553222656	1826.891723632812	481.0530090332031	418.8946838378906	1767.960815429688	287.1699829101562	541.498046875	1034.078247070312	369.7437438964844	184.4219818115234	1013.246643066406	433.8347473144531	241.9311218261719	1091.14208984375	510.028076171875	504.8923645019531	1100.168090820312	475.9791564941406	546.8899536132812	550.9166259765625	519.3136596679688	564.5423583984375	686.8749389648438	455.1900634765625	565.4335327148438	33.36714553833008	533.7501220703125	582.7120361328125	291.618408203125	484.9374389648438	509.6426086425781	51.1294059753418	760.9447631835938	476.2782592773438	50.51365661621094	683.8927001953125	590.53662109375	38.41157531738281	657.6669921875	502.6684265136719	33.89051055908203	466.1209716796875	225.9584350585938	514.998291015625	423.7861633300781	169.1366119384766	93.83479309082031	98.61366271972656	198.2062072753906	399.0408020019531	344.3362121582031	291.6803894042969	36.67431640625	285.762451171875	309.6581420898438	43.9487190246582	215.3496551513672	190.0670928955078	42.01834106445312	221.2864532470703	201.0345001220703	126.1513824462891	37.76347732543945	201.2070007324219	797.4243774414062	452.9958801269531	nan	nan	nan	
396	3.95	290.041259765625	1108.69775390625	301.0263366699219	424.0750732421875	1114.604858398438	288.3032836914062	356.8651123046875	1143.439208984375	285.0133056640625	378.9151000976562	1353.064208984375	493.908447265625	343.2396850585938	1292.191650390625	249.8026733398438	359.7788696289062	1585.86279296875	263.0982971191406	378.5445556640625	1485.484252929688	449.2962646484375	265.4612426757812	1400.146606445312	230.0197601318359	459.49072265625	1565.121826171875	242.3515014648438	539.9195556640625	1554.763549804688	317.8859252929688	606.9124755859375	1423.62060546875	288.3882751464844	634.4414672851562	1205.90478515625	297.9994506835938	564.1261596679688	1190.887451171875	246.1707000732422	620.0578002929688	950.0700073242188	411.4422607421875	628.624755859375	922.4473266601562	326.8718872070312	644.5148315429688	1089.892822265625	315.4968566894531	606.5963134765625	757.3228149414062	433.4183044433594	636.2974243164062	848.5052490234375	357.0130310058594	634.7512817382812	861.7269897460938	425.1469421386719	189.30712890625	1571.628295898438	345.26611328125	122.6697235107422	1498.164428710938	342.5520629882812	97.11655426025391	1204.454345703125	360.6281127929688	191.7309112548828	1199.799560546875	338.5758972167969	131.8941040039062	967.0277099609375	512.9116821289062	85.22219085693359	949.4895629882812	444.93994140625	84.89302062988281	1133.455322265625	391.2066650390625	148.8482666015625	772.1290283203125	539.3714599609375	128.5749359130859	859.4307250976562	545.3896484375	87.54454803466797	850.508056640625	485.8888244628906	290.1839904785156	1765.789916992188	319.9395141601562	444.65478515625	1825.09619140625	466.9285278320312	317.0211486816406	1827.811279296875	486.5630798339844	423.3084716796875	1768.675537109375	293.1645812988281	545.7735595703125	1035.318725585938	377.0069580078125	188.6350860595703	1014.070373535156	439.4614562988281	245.2796020507812	1091.622436523438	515.1356201171875	508.4105529785156	1101.164428710938	482.8836669921875	549.5466918945312	550.553955078125	522.015869140625	567.3561401367188	687.0894775390625	459.1573791503906	565.3533325195312	33.41573715209961	533.9021606445312	583.6918334960938	291.3740844726562	486.0967102050781	509.5345458984375	49.69208145141602	761.68115234375	476.1686401367188	50.07588195800781	684.2120971679688	590.7811279296875	38.23607635498047	657.9880981445312	502.7750549316406	34.02668380737305	466.2637634277344	228.9629974365234	515.2496337890625	435.4269714355469	170.1563873291016	99.67460632324219	102.559944152832	200.6986389160156	400.6177673339844	354.3691711425781	291.8018798828125	36.4973030090332	286.2030029296875	310.3498840332031	44.86369705200195	216.4696807861328	190.7358551025391	42.59270477294922	222.5462036132812	202.3334045410156	134.2420959472656	43.19999694824219	204.7616271972656	798.0006103515625	460.6177978515625	nan	nan	nan	
